<?xml version="1.0" encoding="UTF-8" standalone="no"?>
<!DOCTYPE svg PUBLIC "-//W3C//DTD SVG 1.1//EN" "http://www.w3.org/Graphics/SVG/1.1/DTD/svg11.dtd">
<svg width="100%" height="100%" viewBox="0 0 246 246" version="1.1" xmlns="http://www.w3.org/2000/svg" xmlns:xlink="http://www.w3.org/1999/xlink" xml:space="preserve" xmlns:serif="http://www.serif.com/" style="fill-rule:evenodd;clip-rule:evenodd;stroke-linejoin:round;stroke-miterlimit:2;">
    <g transform="matrix(1,0,0,1,-397,-449)">
        <g id="Layer2">
        </g>
        <g id="Layer3">
        </g>
        <g id="Layer4">
        </g>
        <g id="Layer41" serif:id="Layer4" transform="matrix(1,0,0,1,-269.994,0)">
            <g transform="matrix(0.565935,0,0,0.565935,634.08,386.65)">
                <circle cx="164.796" cy="257.216" r="45.365" style="fill:rgb(248,151,0);"/>
            </g>
            <g transform="matrix(0.526764,0,0,0.526764,762.822,485.819)">
                <circle cx="164.796" cy="257.216" r="45.365" style="fill:rgb(248,151,0);"/>
            </g>
            <g transform="matrix(1.98409,0,0,1.98409,433.57,62.9658)">
                <path d="M180.286,299.895C162.813,293.638 150.469,276.829 150.469,257.216C150.469,237.602 162.765,220.801 180.238,214.544C197.785,220.896 210.16,237.682 210.16,257.216C210.16,276.75 197.945,293.527 180.286,299.895ZM180.28,292.854C194.181,286.851 203.608,273.095 203.608,257.216C203.608,241.339 194.055,227.584 180.228,221.587C166.48,227.515 157.021,241.289 157.021,257.216C157.021,273.146 166.524,286.927 180.28,292.854Z" style="fill:rgb(122,64,62);"/>
            </g>
            <g transform="matrix(1.20267,0,0,1.31634,574.471,234.725)">
                <path d="M180.286,299.895C162.813,293.638 150.469,276.829 150.469,257.216C150.469,237.602 162.765,220.801 180.238,214.544C197.785,220.896 210.16,237.682 210.16,257.216C210.16,276.75 197.945,293.527 180.286,299.895Z" style="fill:rgb(122,64,62);"/>
            </g>
            <g transform="matrix(1.84113,0,0,1.84113,457.13,99.7374)">
                <path d="M181.44,303.2C176.244,305.084 170.639,306.111 164.796,306.111C137.81,306.111 115.9,284.202 115.9,257.216C115.9,230.23 137.81,208.321 164.796,208.321C170.639,208.321 176.244,209.348 181.44,211.231C178.046,212.462 174.826,214.058 171.828,215.971C169.541,215.583 167.192,215.382 164.796,215.382C141.707,215.382 122.961,234.127 122.961,257.216C122.961,280.305 141.707,299.05 164.796,299.05C167.192,299.05 169.541,298.848 171.828,298.46C174.826,300.374 178.046,301.97 181.44,303.2Z" style="fill:rgb(122,64,62);"/>
            </g>
            <g transform="matrix(1.84113,0,0,1.84113,518.42,99.7374)">
                <path d="M148.151,211.231C153.347,209.348 158.952,208.321 164.796,208.321C191.781,208.321 213.691,230.23 213.691,257.216C213.691,284.202 191.781,306.111 164.796,306.111C158.952,306.111 153.347,305.084 148.151,303.2C151.545,301.97 154.765,300.374 157.763,298.46C160.05,298.848 162.399,299.05 164.796,299.05C187.884,299.05 206.63,280.305 206.63,257.216C206.63,234.127 187.884,215.382 164.796,215.382C162.399,215.382 160.05,215.583 157.763,215.971C154.765,214.058 151.545,212.462 148.151,211.231Z" style="fill:rgb(122,64,62);"/>
            </g>
        </g>
        <g id="Layer42" serif:id="Layer4">
        </g>
        <g id="Layer43" serif:id="Layer4">
        </g>
        <g id="Layer31" serif:id="Layer3">
        </g>
        <g id="Layer6">
        </g>
    </g>
</svg>
